# xmcd
# 
# Track frame offsets:
#     150
#     14946
#     27904
#     42688
#     56037
#     69992
#     84988
#     99851
#     114924
#     131840
#     148096
#     165669
#     181209
#     199656
#     216516
#     234296
#     247696
#     261455
#     269896
#     279993
#     293589
#     310780
# 
# Disc length: 4371
# 
# Revision: 3
# Processed by: cddbd v1.5.2PL0 Copyright (c) Steve Scherf et al.
# Submitted via: BonkEnc v1.0.5
# 
DISCID=48111116
DTITLE=Various Artist - Fußball ist unser Leben - Die größten Fußball-Kulthits
DYEAR=2006
DGENRE=Cult
TTITLE0=Weltmeister-Elf '74 - Fußball ist unser Leben (Remix 2006)
TTITLE1=Franz Beckenbauer - Gute Freunde kann niemand trennen (Remix 2006)
TTITLE2=Fritz Walter und die Altinternationalen - Schwarz und weiss (Remix 2006)
TTITLE3=Tony Marshall - Jetzt geht's los (Remix 2006)
TTITLE4=Fankurve Süd - Viva Colonia
TTITLE5=Hansi Hinterseer - Hände zum Himmel, Hände zur Hölle
TTITLE6=Tanja Berg - Na Na Hey Hey Goodbye
TTITLE7=Tony Christie - Is this the Way to Amarillo
TTITLE8=Fankurve Nord - Football's coming Home (Three Lions)
TTITLE9=DJ Ötzi - Hey Baby
TTITLE10=Tony Marshall - Wir sind die Champions (Olé Olé Olé)
TTITLE11=Udo Jürgens und die Nationalmannschaft - Buenos Dias Argentina
TTITLE12=Fankurve Ost - Go West
TTITLE13=Wolfgang Petry - Wahnsinn
TTITLE14=Olaf Berger - (Wer verdammt ist) Alice
TTITLE15=Tony Marshall - Die Hände zum Himmel
TTITLE16=Fankurve West - We are the Champions
TTITLE17=Radi Radenkovic - Bin i Radi, bin i König
TTITLE18=Gerd Müller - Dann macht es bumm
TTITLE19=Hansi Hinterseer - So ein schöner Tag
TTITLE20=The Munich Orchestra - Deutsche Nationalhymne
TTITLE21=Weltmeister-Elf '74 - Fußball ist unser Leben (Video Clip)
EXTD=YEAR: 2006
EXTT0=
EXTT1=
EXTT2=
EXTT3=
EXTT4=
EXTT5=
EXTT6=
EXTT7=
EXTT8=
EXTT9=
EXTT10=
EXTT11=
EXTT12=
EXTT13=
EXTT14=
EXTT15=
EXTT16=
EXTT17=
EXTT18=
EXTT19=
EXTT20=
EXTT21=Video Clip
PLAYORDER=
